HIERARCHY
ROOT Hips
{
	OFFSET 0.000000 0.000000 0.000000 
	CHANNELS 6 Xposition Yposition Zposition Zrotation Yrotation Xrotation
	JOINT LeftUpLeg
	{
		OFFSET 1.363060 -1.794630 0.839290 
		CHANNELS 3 Zrotation Yrotation Xrotation
		JOINT LeftLeg
		{
			OFFSET 2.448110 -6.726130 0.000000 
			CHANNELS 3 Zrotation Yrotation Xrotation
			JOINT LeftFoot
			{
				OFFSET 2.562200 -7.039590 0.000000 
				CHANNELS 3 Zrotation Yrotation Xrotation
				JOINT LeftToeBase
				{
					OFFSET 0.157640 -0.433110 2.322550 
					CHANNELS 3 Zrotation Yrotation Xrotation
					End Site
					{
						OFFSET 0.000000 0.000000 0.000000 
					}
				}
			}
		}
	}
	JOINT RightUpLeg
	{
		OFFSET -1.305520 -1.794630 0.839290 
		CHANNELS 3 Zrotation Yrotation Xrotation
		JOINT RightLeg
		{
			OFFSET -2.542530 -6.985550 0.000000 
			CHANNELS 3 Zrotation Yrotation Xrotation
			JOINT RightFoot
			{
				OFFSET -2.568260 -7.056230 0.000000 
				CHANNELS 3 Zrotation Yrotation Xrotation
				JOINT RightToeBase
				{
					OFFSET -0.164730 -0.452590 2.363150 
					CHANNELS 3 Zrotation Yrotation Xrotation
					End Site
					{
						OFFSET 0.000000 0.000000 0.000000 
					}
				}
			}
		}
	}
	JOINT Spine
	{
		OFFSET 0.028270 2.035590 -0.193380 
		CHANNELS 3 Zrotation Yrotation Xrotation
		JOINT Spine1
		{
			OFFSET 0.056720 2.048850 -0.042750 
			CHANNELS 3 Zrotation Yrotation Xrotation
			JOINT Neck1
			{
				OFFSET -0.054170 1.746240 0.172020 
				CHANNELS 3 Zrotation Yrotation Xrotation
				JOINT Head
				{
					OFFSET 0.104070 1.761360 -0.123970 
					CHANNELS 3 Zrotation Yrotation Xrotation
					End Site
					{
						OFFSET 0.000000 0.000000 0.000000 
					}
				}
			}
			JOINT LeftArm
			{
				OFFSET 3.362410 1.200890 -0.311210 
				CHANNELS 3 Zrotation Yrotation Xrotation
				JOINT LeftForeArm
				{
					OFFSET 4.983000 -0.000000 -0.000000 
					CHANNELS 3 Zrotation Yrotation Xrotation
					JOINT LeftHand
					{
						OFFSET 3.483560 -0.000000 -0.000000 
						CHANNELS 3 Zrotation Yrotation Xrotation
						JOINT LeftHandIndex1
						{
							OFFSET 0.715260 -0.000000 -0.000000 
							CHANNELS 3 Zrotation Yrotation Xrotation
							End Site
							{
								OFFSET 0.000000 0.000000 0.000000 
							}
						}
					}
				}
			}
			JOINT RightArm
			{
				OFFSET -3.136600 1.374050 -0.404650 
				CHANNELS 3 Zrotation Yrotation Xrotation
				JOINT RightForeArm
				{
					OFFSET -5.241900 -0.000000 -0.000000 
					CHANNELS 3 Zrotation Yrotation Xrotation
					JOINT RightHand
					{
						OFFSET -3.444170 -0.000000 -0.000000 
						CHANNELS 3 Zrotation Yrotation Xrotation
						JOINT RightHandIndex1
						{
							OFFSET -0.622530 -0.000000 -0.000000 
							CHANNELS 3 Zrotation Yrotation Xrotation
							End Site
							{
								OFFSET 0.000000 0.000000 0.000000 
							}
						}
					}
				}
			}
		}
	}
}
MOTION
Frames: 6
Frame Time: 0.041667
-2.852516 17.088346 3.832289 178.042694 -79.216501 -176.455547 -3.246834 -7.061388 -14.044672 1.176090 9.164407 28.134597 1.588441 -4.576417 0.624969 1.931800 -8.722700 -24.931500 6.385092 9.629548 -12.280580 -4.808305 -13.423560 42.282781 -2.480398 9.821353 -8.665101 -0.530000 4.665100 -12.955900 -0.024338 1.550116 -2.966199 2.479677 1.320709 -4.884952 -0.582912 7.628242 5.464122 2.697100 2.837100 8.305700 58.119280 -25.292599 -74.238303 15.143048 -26.268573 -4.339244 -0.918388 -2.599108 -13.623454 -7.125000 0.000000 0.000000 -66.846128 20.463065 -74.233114 -15.210204 29.708878 -4.548261 2.280068 2.121147 -5.117761 7.125000 0.000000 0.000000 
-2.815573 17.078656 3.782023 176.614554 -79.538978 -175.070389 -3.246068 -7.329143 -14.058377 1.126345 9.100265 27.935571 1.613335 -4.745609 1.065602 1.931700 -8.722300 -24.930600 6.377433 9.079296 -12.755206 -4.958542 -13.572662 42.844847 -2.450867 9.492956 -8.966131 -0.589200 4.914300 -13.664400 -0.158846 1.653473 -2.936916 2.246756 1.373865 -4.933397 -0.468932 7.719828 5.766023 2.744000 2.875300 8.377800 58.167235 -25.311073 -73.973618 15.483521 -26.654978 -4.496064 -0.894773 -2.587490 -14.262971 -7.125000 0.000000 0.000000 -66.748128 20.334422 -74.412082 -15.330803 29.845081 -4.615433 2.280344 2.149407 -5.342349 7.125000 0.000000 0.000000 
-2.773988 17.081684 3.737107 170.637895 -79.634139 -168.957543 -4.103141 -7.668436 -14.175196 1.037656 9.008184 27.680872 1.546883 -4.608568 1.386727 1.961900 -8.786200 -25.128700 5.436737 8.399990 -13.528555 -5.067751 -13.692832 43.199922 -2.438605 9.388384 -8.807704 -0.487200 4.475500 -12.418400 -0.463433 1.757785 -2.986487 2.121587 1.452287 -5.040992 -0.133674 7.723515 6.003945 2.878600 2.892200 8.414700 58.132655 -25.430322 -73.529810 15.857106 -27.079508 -4.671590 -0.852403 -2.570145 -14.855293 -7.125000 0.000000 0.000000 -66.737708 20.407468 -74.956359 -15.318604 29.853399 -4.620186 2.290938 2.141720 -5.427270 7.125000 0.000000 0.000000 
-2.746534 17.086024 3.635668 175.864251 -80.253201 -174.472269 -2.737512 -7.661231 -13.925516 0.984281 8.880794 27.236232 1.651396 -4.979684 2.372875 1.964900 -8.792500 -25.148500 7.075112 8.199334 -13.148452 -5.099940 -13.705700 43.413100 -2.349008 8.568401 -9.705614 -0.558800 4.788400 -13.305900 -0.306002 1.918651 -2.882121 2.043532 1.499649 -4.991606 0.034641 7.538558 5.916618 2.925700 2.823900 8.337000 58.156033 -25.589228 -72.949031 16.231990 -27.500817 -4.846920 -0.812530 -2.556034 -15.430846 -7.125000 0.000000 0.000000 -66.704100 20.448627 -75.335517 -15.313739 29.858524 -4.623608 2.294038 2.163217 -6.010722 7.125000 0.000000 0.000000 
-2.716355 17.106413 3.556838 177.213960 -80.686116 -175.888253 -2.166877 -7.980605 -13.687996 0.877805 8.699633 26.655593 1.646778 -4.940666 3.218491 1.957400 -8.776800 -25.099700 7.754849 8.005807 -12.971529 -5.058772 -13.661354 43.301325 -2.276594 7.945069 -10.195175 -0.742200 5.503300 -15.349700 -0.367518 2.056247 -2.850932 1.737876 1.552049 -4.944930 0.683625 8.423736 7.091656 3.307900 3.216700 8.656100 58.183996 -25.745969 -72.098246 16.662998 -27.972908 -5.048400 -0.765660 -2.551750 -16.147592 -7.125000 0.000000 0.000000 -66.521652 20.473920 -75.610229 -15.406073 29.977419 -4.688076 2.283021 2.196008 -6.583304 7.125000 0.000000 0.000000 
-2.685368 17.145980 3.487698 174.543875 -81.073369 -173.145616 -2.271801 -8.653099 -13.419139 0.730260 8.482956 25.990686 1.516285 -4.426845 4.104186 1.893800 -8.641400 -24.679800 7.620864 7.495983 -12.993057 -4.934331 -13.547451 42.834081 -2.226445 7.654712 -10.088986 -0.819300 5.775700 -16.135000 -0.576628 2.118373 -2.867090 1.475597 1.593306 -4.898912 0.414306 7.723830 6.774677 3.045100 2.912900 8.549400 58.062199 -25.894563 -71.015546 17.117043 -28.459167 -5.263417 -0.720976 -2.550366 -16.836793 -7.125000 0.000000 0.000000 -66.379589 20.620132 -75.886137 -15.440828 30.036019 -4.716101 2.282439 2.239237 -7.214813 7.125000 0.000000 0.000000 
